<svg width="68" height="18" viewBox="0 0 68 18" xmlns="http://www.w3.org/2000/svg"><title>Group</title><g fill="none" fill-rule="evenodd"><path d="M67.161 0h-1.993c-.456 0-.918.34-1.047.772-.006.017-.015.034-.019.052l-.13.575-2.732 12.062c-.064.273-.106.45-.119.496l.006.007c-.095.422.165.77.593.81l.005.007h2.065c.453 0 .912-.336 1.045-.763.007-.02.017-.04.021-.06L67.838.823l-.005-.002c.102-.45-.196-.822-.672-.822zM56.956 11.854c-.276.17-.568.314-.874.438-.41.161-.8.246-1.16.246-.552 0-.977-.077-1.264-.24-.288-.154-.438-.422-.433-.806 0-.443.105-.788.322-1.057.22-.26.545-.469.949-.625a8.4 8.4 0 0 1 1.466-.32c.507-.062 1.51-.174 1.637-.175.129-.001.214-.07.157.263a85.386 85.386 0 0 1-.448 1.827c-.038.158-.254.388-.352.45 0 0 .098-.062 0 0zm3.934-8.132c-.844-.458-2.165-.69-3.972-.69-.894 0-1.792.07-2.693.206-.662.099-.73.115-1.14.202-.846.18-.977 1.003-.977 1.003l-.271 1.087c-.154.696.253.667.434.613.37-.108.57-.216 1.322-.382.72-.16 1.48-.278 2.087-.274.89 0 1.567.095 2.017.278.45.191.673.517.673.982.002.111.005.216-.037.307-.037.085-.108.167-.32.195-1.27.074-2.182.187-3.28.343-1.083.148-2.031.403-2.824.755-.844.365-1.476.853-1.912 1.472-.424.621-.637 1.374-.638 2.26 0 .838.31 1.521.907 2.052.606.523 1.393.782 2.346.782.595-.004 1.061-.045 1.395-.127.33-.08.691-.196 1.072-.357a5.61 5.61 0 0 0 .916-.493c.324-.21.549-.36.837-.544l.01.017-.08.349c0 .003-.006.005-.006.008l.003.006c-.093.42.166.77.593.81l.006.008h.037l.002.002c.283 0 1.256 0 1.71-.002h.318c.021 0 .023-.006.032-.011.436-.052.854-.398.952-.813l1.624-6.824c.037-.161.067-.346.085-.56.02-.215.044-.393.037-.52.003-.967-.423-1.68-1.265-2.14zm-9.779-1.554c-.277-.525-.695-.948-1.225-1.277-.542-.328-1.187-.557-1.933-.69A15.94 15.94 0 0 0 45.337 0l-4.652.002c-.48.008-.95.374-1.06.826L36.497 14.08c-.114.45.197.826.668.823l2.232-.004c.473.004.956-.368 1.068-.819l.754-3.216c.106-.45.587-.828 1.069-.822h.634c2.723 0 4.834-.544 6.346-1.628 1.508-1.09 2.267-2.52 2.267-4.297-.005-.776-.14-1.43-.424-1.949zm-4.8 4.335c-.666.471-1.601.708-2.804.708h-.554c-.479.005-.788-.371-.674-.823l.667-2.813c.1-.445.585-.823 1.057-.82l.731-.003c.853.003 1.492.142 1.933.419.433.28.643.713.646 1.29.002.881-.332 1.559-1.002 2.042z" fill="#306FC5"/><path d="M35.65 3.032c-.424 0-.98.336-1.242.742 0 0-2.834 4.758-3.112 5.234-.152.255-.305.093-.33-.002-.021-.116-.879-5.201-.879-5.201-.096-.41-.533-.761-1.079-.76l-1.767.003c-.426 0-.691.334-.596.738 0 0 1.35 7.5 1.614 9.263.13.975-.014 1.148-.014 1.148l-1.751 2.99c-.256.406-.116.739.308.739l2.047-.002c.424 0 .986-.33 1.238-.737l7.878-13.05s.753-1.115.058-1.105c-.474.006-2.373 0-2.373 0zm-14.79 8.822a5.9 5.9 0 0 1-.872.437c-.41.161-.802.246-1.16.246-.552 0-.978-.076-1.265-.238-.287-.155-.439-.423-.434-.808 0-.442.106-.787.324-1.057.219-.26.543-.469.947-.624a8.41 8.41 0 0 1 1.467-.32c.507-.062 1.51-.174 1.638-.176.127 0 .213-.07.156.263a80.023 80.023 0 0 1-.448 1.828c-.04.158-.255.388-.352.45 0 0 .097-.062 0 0zm3.935-8.132c-.844-.459-2.164-.69-3.972-.69-.894 0-1.791.069-2.693.206-.663.097-.73.114-1.14.201-.846.18-.976 1.004-.976 1.004l-.272 1.087c-.153.695.254.667.434.613.369-.109.57-.216 1.323-.383.719-.158 1.48-.277 2.086-.273.891 0 1.567.095 2.017.277.45.192.672.518.672.983a.711.711 0 0 1-.035.306c-.037.086-.11.168-.322.196-1.269.074-2.18.187-3.28.343-1.083.148-2.03.403-2.823.755-.845.365-1.476.854-1.91 1.472-.426.62-.64 1.373-.64 2.26 0 .838.31 1.521.907 2.051.606.524 1.393.783 2.346.783.595-.004 1.06-.046 1.396-.127.33-.082.69-.196 1.07-.357a5.64 5.64 0 0 0 .916-.493c.324-.21.55-.36.84-.544l.009.017-.082.348c0 .003-.005.005-.005.01l.004.005c-.093.42.165.77.593.81l.005.008h.037l.001.002 1.711-.002h.318c.022 0 .025-.007.031-.012.437-.053.854-.398.953-.812l1.624-6.825a3.82 3.82 0 0 0 .083-.558c.022-.217.046-.394.04-.521.003-.967-.424-1.68-1.266-2.14zM14.637 2.168c-.277-.525-.695-.948-1.224-1.277-.543-.328-1.187-.557-1.934-.69A15.94 15.94 0 0 0 8.864 0L4.21.002c-.479.008-.949.374-1.06.826L.025 14.08c-.114.45.197.826.667.823l2.232-.004c.474.004.956-.368 1.068-.819l.755-3.216c.105-.45.587-.828 1.068-.822h.634c2.723 0 4.834-.544 6.346-1.628 1.508-1.09 2.267-2.52 2.267-4.297-.004-.776-.14-1.43-.424-1.949zm-4.8 4.335c-.666.471-1.6.708-2.804.708h-.554c-.478.005-.787-.371-.674-.823l.667-2.813c.1-.445.586-.823 1.057-.82l.731-.003c.854.003 1.492.142 1.933.419.433.28.643.713.647 1.29.002.881-.333 1.559-1.002 2.042z" fill="#265697"/></g></svg>