<?xml version="1.0" encoding="UTF-8" standalone="no"?>
<svg width="15px" height="17px" viewBox="0 0 15 17" version="1.1" xmlns="http://www.w3.org/2000/svg" xmlns:xlink="http://www.w3.org/1999/xlink">
    <!-- Generator: Sketch 39.1 (31720) - http://www.bohemiancoding.com/sketch -->
    <title>Fill 125</title>
    <desc>Created with Sketch.</desc>
    <defs></defs>
    <g id="Page-1" stroke="none" stroke-width="1" fill="none" fill-rule="evenodd">
        <g id="Payment-Popup" transform="translate(-317.000000, -872.000000)" fill="#FFFFFF">
            <g id="Popup" transform="translate(251.000000, 123.000000)">
                <g id="Cancel-Payment" transform="translate(0.000000, 731.000000)">
                    <path d="M79.9924876,25.6934337 L66.526902,17.9998196 C66.4179525,17.9373616 66.2841138,17.9373616 66.175634,18.0012285 C66.0666846,18.0641562 66,18.1801497 66,18.3060051 L66,33.6946421 C66,33.8204975 66.0666846,33.936491 66.175634,33.9998883 C66.2301087,34.0313522 66.291158,34.0468493 66.3522072,34.0468493 C66.4127868,34.0468493 66.4728969,34.0318218 66.526902,34.0008275 L79.9924876,26.305335 C80.1023763,26.2424073 80.1700001,26.1254746 80.1700001,25.9991496 C80.1700001,25.8728246 80.1023763,25.7563614 79.9924876,25.6934337 L79.9924876,25.6934337 Z M66.7044144,33.0879065 L66.7044144,18.9127407 L79.1077432,25.9991496 L66.7044144,33.0879065 L66.7044144,33.0879065 Z" id="Fill-125" transform="translate(73.085000, 26.000000) scale(-1, 1) translate(-73.085000, -26.000000) "></path>
                </g>
            </g>
        </g>
    </g>
</svg>