<?xml version="1.0" encoding="UTF-8" standalone="no"?>
<svg width="16px" height="12px" viewBox="0 0 16 12" version="1.1" xmlns="http://www.w3.org/2000/svg" xmlns:xlink="http://www.w3.org/1999/xlink">
    <!-- Generator: Sketch 39.1 (31720) - http://www.bohemiancoding.com/sketch -->
    <title>Fill 123</title>
    <desc>Created with Sketch.</desc>
    <defs></defs>
    <g id="Page-1" stroke="none" stroke-width="1" fill="none" fill-rule="evenodd">
        <g id="Payment-Popup" transform="translate(-857.000000, -444.000000)" fill="#C6CFD9">
            <g id="Month" transform="translate(668.000000, 330.000000)">
                <path d="M189.33373,123.969486 L203.936216,123.969486 C204.055181,123.969486 204.16479,123.922484 204.224941,123.845693 C204.284647,123.769232 204.285093,123.674567 204.225832,123.597776 L196.924813,114.115684 C196.805401,113.961108 196.462762,113.96177 196.343797,114.115684 L189.044113,123.597776 C188.984853,123.674567 188.985299,123.769232 189.04545,123.845693 C189.10471,123.922484 189.214765,123.969486 189.33373,123.969486 L189.33373,123.969486 Z M196.63475,114.738953 L203.360101,123.472989 L189.909845,123.472989 L196.63475,114.738953 L196.63475,114.738953 Z M203.936216,125.053504 L189.33373,125.053504 C189.149712,125.053504 189.000002,125.164719 189.000002,125.301752 C189.000002,125.438785 189.149712,125.55 189.33373,125.55 L203.936216,125.55 C204.120679,125.55 204.269943,125.438785 204.269943,125.301752 C204.269943,125.164719 204.120679,125.053504 203.936216,125.053504 L203.936216,125.053504 Z" id="Fill-123" transform="translate(196.635000, 119.775000) rotate(-180.000000) translate(-196.635000, -119.775000) "></path>
            </g>
        </g>
    </g>
</svg>