<?xml version="1.0" encoding="UTF-8" standalone="no"?>
<svg width="68px" height="18px" viewBox="0 0 68 18" version="1.1" xmlns="http://www.w3.org/2000/svg" xmlns:xlink="http://www.w3.org/1999/xlink">
    <!-- Generator: Sketch 39.1 (31720) - http://www.bohemiancoding.com/sketch -->
    <title>Group</title>
    <desc>Created with Sketch.</desc>
    <defs></defs>
    <g id="Page-1" stroke="none" stroke-width="1" fill="none" fill-rule="evenodd">
        <g id="Payment-Popup" transform="translate(-915.000000, -806.000000)">
            <g id="Paypal" transform="translate(836.000000, 801.000000)">
                <g id="Group" transform="translate(79.000000, 5.000000)">
                    <path d="M67.1609679,0 L65.171318,0 C65.1701963,0 65.1690741,0.000364073684 65.1683267,0.000364073684 L65.1672045,0 C64.7117652,0 64.2495948,0.339671747 64.1205912,0.7718157 C64.1153565,0.789290763 64.1063821,0.806037726 64.1022691,0.824240937 C64.1022691,0.824240937 64.0547808,1.03503396 63.9725175,1.39946206 L61.239506,13.4609023 C61.1763132,13.7335863 61.1340596,13.9112495 61.1213464,13.9574856 L61.1265811,13.9640388 C61.0319783,14.3856249 61.2922294,14.7343982 61.7196247,14.7733531 L61.7252336,14.7813624 L63.7904162,14.7813624 C64.2428642,14.7813624 64.7020433,14.4449673 64.8351599,14.0182843 C64.8415168,13.9975327 64.8516129,13.9782373 64.8564738,13.9574856 L67.8377707,0.823512789 L67.8332835,0.822056542 C67.9346169,0.372801553 67.6373473,0 67.1609679,0 L67.1609679,0 Z M56.9555472,11.8541797 C56.6795911,12.0234695 56.3879305,12.168367 56.0824345,12.2917846 C55.6718658,12.453065 55.2826106,12.5375278 54.922522,12.5375278 C54.3698623,12.5375278 53.9450846,12.4614385 53.6579107,12.2987018 C53.3703631,12.1443387 53.2196718,11.8760236 53.2245328,11.4919361 C53.2245328,11.0485061 53.3296054,10.7044656 53.5472292,10.4346942 C53.7663489,10.1751165 54.0920366,9.96614379 54.4958747,9.81032443 C54.8974689,9.67780511 55.391423,9.56858594 55.9616568,9.49031218 C56.4686979,9.42805724 57.4711885,9.31556146 57.5994446,9.31483331 C57.7277003,9.31374114 57.8129549,9.24493301 57.7557448,9.57768755 C57.7303179,9.72222092 57.4409006,10.8792163 57.3081577,11.4052888 C57.2696434,11.5629285 57.054263,11.7926529 56.9555472,11.8541797 C56.9555472,11.8541797 57.054263,11.7926529 56.9555472,11.8541797 L56.9555472,11.8541797 Z M60.8899763,3.72244623 C60.045656,3.26372556 58.7249557,3.03181683 56.9177808,3.03181683 C56.0241021,3.03181683 55.1259367,3.10171708 54.2247795,3.23787704 C53.5633079,3.33653841 53.4952537,3.35292125 53.0843113,3.43993254 C52.2388689,3.61905205 52.1083693,4.44329294 52.1083693,4.44329294 L51.8369005,5.53038802 C51.6828437,6.22575028 52.089673,6.19698922 52.2710263,6.14310774 C52.6400893,6.03461667 52.840139,5.92685375 53.593222,5.76084055 C54.3130259,5.60174457 55.0735875,5.48269565 55.680466,5.48742851 C56.5704055,5.48742851 57.2472078,5.58244918 57.6970387,5.76520934 C58.1472433,5.95634291 58.3701018,6.28181612 58.3701018,6.74745399 C58.3715977,6.85812946 58.374589,6.96261581 58.3334576,7.05399589 C58.2964387,7.13918686 58.2253932,7.22146533 58.0126303,7.24949825 C56.7424106,7.32303919 55.8307836,7.435899 54.7329422,7.59171842 C53.6496842,7.7402565 52.7017867,7.99473728 51.9094419,8.34715123 C51.0647473,8.71194335 50.4328157,9.20015318 49.9971939,9.81869788 C49.5731641,10.4401551 49.3600275,11.1926754 49.3589053,12.0791713 C49.3589053,12.9168825 49.6681406,13.6002307 50.2664194,14.1306719 C50.8718025,14.654196 51.6592864,14.9134095 52.6120449,14.9134095 C53.2073323,14.9094048 53.6732415,14.8675374 54.0071557,14.7863511 C54.3377049,14.7051649 54.6981677,14.5897566 55.0788222,14.4292044 C55.3633785,14.313432 55.6703699,14.1459626 55.9945622,13.9358977 C56.3191283,13.7251046 56.5438569,13.5754743 56.8321525,13.391622 L56.8426223,13.4090971 L56.7614807,13.7575063 C56.7611065,13.7607829 56.7562455,13.7626032 56.7562455,13.7658798 L56.7588631,13.7724329 C56.6661299,14.1921987 56.9252593,14.5413361 57.3522805,14.5824753 L57.3575156,14.5897566 L57.395282,14.5897566 L57.3967774,14.5915769 C57.680212,14.5915769 58.6531627,14.5912129 59.1078541,14.5897566 L59.4253158,14.5897566 C59.4462555,14.5897566 59.4484989,14.5835675 59.4567253,14.5788347 C59.8927209,14.5267735 60.310768,14.1809127 60.4091101,13.7658798 L62.033062,6.94150011 C62.0704547,6.78094787 62.0999946,6.59563929 62.1175692,6.3822978 C62.1377609,6.16677191 62.1616919,5.98947276 62.1545876,5.86132224 C62.1583269,4.89546043 61.7320532,4.18153093 60.8899763,3.72244623 L60.8899763,3.72244623 L60.8899763,3.72244623 Z M51.1110154,2.16800114 C50.8339376,1.64302086 50.4155167,1.22034254 49.8864143,0.891228695 C49.3438502,0.562842947 48.6992053,0.333846711 47.9528529,0.200235221 C47.2147264,0.0742690895 46.3371269,0.00218439474 45.3372539,0 L40.6848903,0.00218439474 C40.2058936,0.0101938263 39.735871,0.376442195 39.6251895,0.827517505 L36.4973146,14.0801752 C36.3832678,14.5305224 36.6943726,14.9058723 37.1647691,14.9033239 L39.3970958,14.8993192 C39.8704837,14.9033239 40.3528457,14.5305224 40.464649,14.0801752 L41.2192279,10.8640338 C41.3250484,10.4133226 41.8062887,10.0357882 42.2875291,10.0423414 L42.9220779,10.0423414 C45.6449933,10.0423414 47.7561688,9.49770166 49.2679438,8.41351907 C50.7759795,7.32387548 51.5350452,5.89456023 51.5350452,4.11683575 C51.5301842,3.34065126 51.39445,2.68679236 51.1110154,2.16800114 L51.1110154,2.16800114 Z M46.3113258,6.50254713 C45.6449933,6.97437407 44.709809,7.21101567 43.5065213,7.21101567 L42.9531137,7.21101567 C42.4744908,7.21647663 42.1652557,6.83967036 42.2789289,6.38786695 L42.9460093,3.57510851 C43.0454731,3.13022231 43.5312002,2.75159572 44.0030925,2.75523636 L44.7341142,2.75159572 C45.5874089,2.75523636 46.2256975,2.89430882 46.6665539,3.1706334 C47.0999319,3.45023455 47.3100771,3.88383475 47.3134427,4.46160434 C47.3153123,5.34227514 46.9806501,6.01979826 46.3113258,6.50254713 L46.3113258,6.50254713 Z" id="pal" fill="#306FC5"></path>
                    <path d="M35.64999,3.03187652 C35.226367,3.03187652 34.670736,3.36767613 34.4077173,3.77350191 C34.4077173,3.77350191 31.5740322,8.53202065 31.2957178,9.00754683 C31.1444239,9.26322357 30.9911349,9.10069787 30.9655313,9.0055926 C30.9449154,8.88996808 30.0873616,3.80476937 30.0873616,3.80476937 C29.9909325,3.39536089 29.5543415,3.04392752 29.0083533,3.04555599 L27.2413734,3.04816164 C26.8154228,3.04816164 26.5497441,3.38233277 26.6445106,3.78620432 C26.6445106,3.78620432 27.9951829,11.2851869 28.258534,13.0488679 C28.3898771,14.024348 28.2449009,14.1972962 28.2449009,14.1972962 L26.4938817,17.1878998 C26.2375133,17.5933999 26.3778343,17.9256168 26.8017897,17.9256168 L28.8494116,17.9239883 C29.2733671,17.9239883 29.8349834,17.5933999 30.0873616,17.1872484 L37.9646207,4.13731198 C37.9646207,4.13731198 38.7180976,3.02243111 38.0231432,3.03187652 C37.5493105,3.03839057 35.64999,3.03187652 35.64999,3.03187652 L35.64999,3.03187652 Z M20.86084,11.8541797 C20.5848841,12.0234695 20.2935972,12.1676388 19.9881013,12.2914206 C19.5775326,12.4519728 19.186408,12.5371638 18.8274409,12.5371638 C18.2762768,12.5371638 17.8503773,12.4607103 17.5628297,12.2987018 C17.275656,12.1439746 17.1242167,11.8756595 17.1290778,11.4912079 C17.1290778,11.0488701 17.2352722,10.7037375 17.4525221,10.4343301 C17.6720155,10.1743884 17.9962077,9.96505162 18.4000457,9.80959628 C18.8027619,9.67634886 19.2982113,9.56858594 19.8665759,9.49031218 C20.373617,9.42805724 21.3772292,9.31592553 21.5051112,9.31410521 C21.6322454,9.31374114 21.717874,9.24420491 21.6606636,9.5769594 C21.6359847,9.72149282 21.3461935,10.8792163 21.2134505,11.4049247 C21.1734406,11.5632926 20.9580603,11.7930169 20.86084,11.8541797 C20.86084,11.8541797 20.9580603,11.7930169 20.86084,11.8541797 L20.86084,11.8541797 Z M24.7952692,3.72208216 C23.9509486,3.26336154 22.6306227,3.03181683 20.8234476,3.03181683 C19.9293952,3.03181683 19.0316034,3.10098898 18.1300725,3.23751297 C17.467479,3.33544618 17.4009205,3.35219315 16.9896041,3.43920444 C16.1437878,3.61905205 16.0136622,4.44256479 16.0136622,4.44256479 L15.7421934,5.53038802 C15.5885105,6.22538621 15.9957139,6.19662515 16.1763192,6.14274371 C16.5446344,6.03425259 16.7458056,5.92685375 17.4988887,5.76011241 C18.2175707,5.60174457 18.9792541,5.48305972 19.585385,5.48706444 C20.4760722,5.48706444 21.1521269,5.58172108 21.6019576,5.76448119 C22.0525361,5.95561481 22.2742731,6.28181612 22.2742731,6.74708992 C22.2772644,6.85776538 22.279508,6.96261581 22.2394981,7.05326774 C22.2017318,7.13918686 22.1299384,7.22110126 21.9171756,7.2487701 C20.6484512,7.32340326 19.7371982,7.435899 18.6374875,7.59171842 C17.5542294,7.7402565 16.6067058,7.99473728 15.8139868,8.34678715 C14.9692923,8.71157927 14.3381084,9.20051721 13.9032347,9.81869788 C13.4777091,10.4397911 13.2649463,11.1923114 13.2641985,12.0791713 C13.2641985,12.9165184 13.5738076,13.6002307 14.1713383,14.1303078 C14.7770953,14.6538319 15.5638315,14.9134095 16.5165901,14.9134095 C17.1122512,14.9094048 17.5777866,14.8668093 17.9128226,14.7863511 C18.2429976,14.7044367 18.6038343,14.5897566 18.9829933,14.4292044 C19.2686713,14.313432 19.5749152,14.1452344 19.8994813,13.9355336 C20.2232995,13.7251046 20.4491496,13.5754743 20.7385669,13.391622 L20.7475411,13.408733 L20.6663995,13.7567782 C20.6656517,13.7600548 20.6611646,13.7622392 20.6611646,13.7662438 L20.6645299,13.7717048 C20.5717968,14.1925628 20.8301783,14.5413361 21.2575735,14.5817472 L21.2628085,14.5897566 L21.3002009,14.5897566 L21.3013226,14.592305 C21.5855049,14.592305 22.5588293,14.5908488 23.0123992,14.5897566 L23.3302347,14.5897566 C23.3515484,14.5897566 23.3545397,14.5828394 23.3612704,14.5784706 C23.7983876,14.5249532 24.2149391,14.1798205 24.3144028,13.7662438 L25.9383551,6.94113603 C25.9749997,6.78094787 26.0049136,6.59563929 26.0213663,6.38266187 C26.0430539,6.16604376 26.0666111,5.98947276 26.0602544,5.86168626 C26.0639936,4.89509635 25.6369723,4.18116685 24.7952692,3.72208216 L24.7952692,3.72208216 Z M14.6373312,2.16800114 C14.3602535,1.64302086 13.9418325,1.22034254 13.4127299,0.891228695 C12.870166,0.562842947 12.2255209,0.333846711 11.4791685,0.200235221 C10.7410423,0.0742690895 9.86344252,0.00218439474 8.86356952,0 L4.21120615,0.00218439474 C3.73220939,0.0101938263 3.2621868,0.376442195 3.15150528,0.827517505 L0.0236303544,14.0801752 C-0.0904164614,14.5305224 0.220688386,14.9058723 0.691084849,14.9033239 L2.9234116,14.8993192 C3.39679947,14.9033239 3.87916158,14.5305224 3.99096483,14.0801752 L4.74554364,10.8640338 C4.85136417,10.4133226 5.33260445,10.0357882 5.81384473,10.0423414 L6.4483939,10.0423414 C9.17130903,10.0423414 11.2824844,9.49770166 12.7942595,8.41351907 C14.3022952,7.32387548 15.0613611,5.89456023 15.0613611,4.11683575 C15.0565001,3.34065126 14.9207657,2.68679236 14.6373312,2.16800114 L14.6373312,2.16800114 Z M9.83764175,6.50254713 C9.17130903,6.97437407 8.23612491,7.21101567 7.03283722,7.21101567 L6.47942959,7.21101567 C6.0008068,7.21647663 5.69157158,6.83967036 5.80524447,6.38786695 L6.47232504,3.57510851 C6.57178887,3.13022231 7.05751622,2.75159572 7.52940843,2.75523636 L8.26042998,2.75159572 C9.11372476,2.75523636 9.75201314,2.89430882 10.1928696,3.1706334 C10.6262477,3.45023455 10.836393,3.88383475 10.8397583,4.46160434 C10.8416279,5.34227514 10.5069659,6.01979826 9.83764175,6.50254713 L9.83764175,6.50254713 Z" id="pay" fill="#265697"></path>
                </g>
            </g>
        </g>
    </g>
</svg>