<?xml version="1.0" encoding="UTF-8" standalone="no"?>
<svg width="84px" height="27px" viewBox="0 0 84 27" version="1.1" xmlns="http://www.w3.org/2000/svg" xmlns:xlink="http://www.w3.org/1999/xlink">
    <!-- Generator: Sketch 39.1 (31720) - http://www.bohemiancoding.com/sketch -->
    <title>Visa</title>
    <desc>Created with Sketch.</desc>
    <defs></defs>
    <g id="Page-1" stroke="none" stroke-width="1" fill="none" fill-rule="evenodd">
        <g id="Payment-Popup" transform="translate(-1060.000000, -215.000000)">
            <g id="Visa" transform="translate(1060.000000, 215.000000)">
                <g id="形状_1_3_" transform="translate(7.272727, 0.000000)" fill="#005BAC">
                    <g id="形状_1">
                        <path d="M26.6050909,0.615993377 L22.3387273,26.4015298 L29.1645455,26.4015298 L33.4314545,0.615993377 L26.6050909,0.615993377 L26.6050909,0.615993377 Z M16.5956364,0.615993377 L10.0876364,18.3510596 L9.31781818,14.5320795 L9.31836364,14.5333311 L9.14872727,13.6773775 C8.36109091,12.0080265 6.53690909,8.83525828 3.09236364,6.12756954 C2.074,5.32722517 1.04745455,4.64417881 0.0550909091,4.06072848 L5.96981818,26.4015298 L13.0818182,26.4015298 L23.9423636,0.615993377 L16.5956364,0.615993377 L16.5956364,0.615993377 Z M43.2358182,7.77456954 C43.2358182,4.85928477 49.8836364,5.23388742 52.8047273,6.81687417 L53.7787273,1.27883444 C53.7787273,1.27883444 50.7725455,0.154490066 47.6390909,0.154490066 C44.2514545,0.154490066 36.2072727,1.61141722 36.2072727,8.69060265 C36.2072727,15.3529868 45.6487273,15.4357748 45.6487273,18.9336159 C45.6487273,22.431457 37.1807273,21.8063444 34.3861818,19.5998543 L33.3705455,25.388404 C33.3705455,25.388404 36.4183636,26.8453311 41.0763636,26.8453311 C45.7338182,26.8453311 52.7621818,24.4723709 52.7621818,18.0175828 C52.7621818,11.3135364 43.2358182,10.6891391 43.2358182,7.77456954 L43.2358182,7.77456954 Z M71.0903636,0.615993377 L65.6021818,0.615993377 C63.068,0.615993377 62.4509091,2.53764238 62.4509091,2.53764238 L52.2712727,26.4015298 L59.386,26.4015298 L60.8092727,22.5716424 L69.4870909,22.5716424 L70.2876364,26.4015298 L76.5552727,26.4015298 L71.0903636,0.615993377 L71.0903636,0.615993377 Z M62.7763636,17.2801788 L66.3632727,7.63062914 L68.3810909,17.2801788 L62.7763636,17.2801788 L62.7763636,17.2801788 Z" id="Shape"></path>
                    </g>
                </g>
                <g id="形状_1_2_" transform="translate(0.000000, 0.715232)" fill="#F6AC1D">
                    <g id="形状_1_1_">
                        <path d="M14.3876364,2.32843709 C14.3876364,2.32843709 14.1050909,0.00125165563 11.0887273,0.00125165563 L0.13,0.00125165563 L0.00163636364,0.438615894 C0.00163636364,0.438615894 5.26927273,1.49465563 10.3229091,5.45113907 C15.1523636,9.23256954 16.7278182,13.9463046 16.7278182,13.9463046 L14.3876364,2.32843709 L14.3876364,2.32843709 Z" id="Shape"></path>
                    </g>
                </g>
            </g>
        </g>
    </g>
</svg>